<svg width="256" height="256" viewBox="0 0 256 256" fill="none" xmlns="http://www.w3.org/2000/svg">
<g clip-path="url(#clip0_3066_62)">
<rect width="256" height="256" rx="12" fill="none"/>
<path d="M139.055 78.267C137.605 70.4713 134.372 63.2855 129.784 57.1335C120.245 44.3218 104.841 36 87.4615 36C58.4837 36 35 59.1249 35 87.6597C35 104.773 43.4511 119.942 56.4615 129.335C65.1415 135.609 75.8628 139.319 87.4615 139.319H106.538V115.838H87.4615C71.6563 115.838 58.8461 103.223 58.8461 87.6597C58.8461 72.0962 71.6563 59.4817 87.4615 59.4817C99.9188 59.4817 110.516 67.315 114.436 78.267H139.055Z" fill="white"/>
<path d="M199.539 125.821C190.859 119.547 180.137 115.837 168.539 115.837H149.462V139.319H168.539C184.344 139.319 197.154 151.933 197.154 167.497C197.154 183.06 184.344 195.675 168.539 195.675C152.733 195.675 139.923 183.06 139.923 167.497V124.197V87.6592H116.077V130.959V167.497C116.077 178.918 119.845 189.476 126.216 198.023C135.755 210.835 151.159 219.157 168.539 219.157C197.516 219.157 221 196.032 221 167.497C221 150.383 212.549 135.214 199.539 125.821Z" fill="white"/>
</g>
<defs>
<clipPath id="clip0_3066_62">
<rect width="256" height="256" fill="white"/>
</clipPath>
</defs>
</svg>
